<?xml version="1.0" encoding="UTF-8" standalone="no"?>
<!DOCTYPE svg PUBLIC "-//W3C//DTD SVG 1.1//EN" "http://www.w3.org/Graphics/SVG/1.1/DTD/svg11.dtd">
<svg width="100%" height="100%" viewBox="0 0 1280 344" version="1.1" xmlns="http://www.w3.org/2000/svg" xmlns:xlink="http://www.w3.org/1999/xlink" xml:space="preserve" xmlns:serif="http://www.serif.com/" style="fill-rule:evenodd;clip-rule:evenodd;stroke-linejoin:round;stroke-miterlimit:2;">
    <g transform="matrix(1,0,0,1,-3.41061e-13,-2508)">
        <g transform="matrix(1,0,0,2.87473,3.41061e-13,-792)">
            <g transform="matrix(1,0,0,0.748981,1.13687e-12,1008.1)">
                <g transform="matrix(1,0,0,0.464444,21,-230.829)">
                    <path d="M1259,1079C1259,1079 1080.64,1139.35 997,1139C876.293,1138.49 659,1069.83 535,1061C440.87,1054.29 343.601,1112.4 253,1086C160.333,1059 -21,899 -21,899L-21,1243L1259,1243L1259,1079Z" style="fill:rgb(33,34,39);fill-opacity:0.23;"/>
                </g>
                <g transform="matrix(1,0,0,0.464444,-3.41061e-13,-221.075)">
                    <path d="M1280,1086C1280,1086 1093.12,1144.97 997,1142C873,1138.17 669,1071.33 536,1063C441.816,1057.1 371.167,1124.67 253,1086C165.072,1057.23 0,913 0,913L0,1222L1280,1222L1280,1086Z" style="fill:rgb(33,34,39);"/>
                </g>
            </g>
        </g>
    </g>
</svg>
